<svg width="30" height="39" viewBox="0 0 30 39" fill="none" xmlns="http://www.w3.org/2000/svg">
<path d="M29.1512 19.5003C29.1509 19.3799 29.0571 19.1624 28.8446 18.9958L5.62227 0.792878C5.62222 0.792837 5.62217 0.792796 5.62212 0.792756C5.41151 0.628127 5.07234 0.508545 4.78401 0.508545C4.49518 0.508545 4.15623 0.627888 3.94619 0.792529L1.45524 2.74507C1.45516 2.74513 1.45508 2.74519 1.45501 2.74525C1.2422 2.91255 1.14819 3.13069 1.14819 3.25042C1.14819 3.37063 1.242 3.58862 1.45479 3.75542L21.0392 19.1067L21.5412 19.5003L21.0392 19.8938L1.45524 35.2448C1.24239 35.412 1.14819 35.6308 1.14819 35.7501C1.14819 35.9004 1.2331 36.0813 1.45479 36.2551L3.94574 38.2076L29.1512 19.5003ZM29.1512 19.5003C29.1509 19.6197 29.0567 19.8381 28.8442 20.0051L5.62183 38.208C5.41179 38.3726 5.07284 38.492 4.78401 38.492C4.49581 38.492 4.15681 38.3725 3.94619 38.208L29.1512 19.5003Z" fill="#666666" stroke="black"/>
</svg>
